<svg xmlns="http://www.w3.org/2000/svg" width="25" height="26" viewBox="0 0 25 26" fill="none">
  <g clip-path="url(#clip0_1_709)">
    <path fill-rule="evenodd" clip-rule="evenodd" d="M22.9284 10.2313L22.9091 10.2102L20.5148 7.76525V7.38308C20.5181 6.87104 20.3181 6.37861 19.9588 6.01379C19.5995 5.64897 19.1102 5.44154 18.5982 5.437H18.2209L18.2129 5.42732L14.7347 1.89665C14.4466 1.603 14.1029 1.36973 13.7236 1.2105C13.3443 1.05126 12.9371 0.969238 12.5257 0.969238C12.1144 0.969238 11.7072 1.05126 11.3279 1.2105C10.9486 1.36973 10.6049 1.603 10.3168 1.89665L8.68995 3.53936C8.56827 3.66362 8.50012 3.83061 8.50012 4.00452C8.50012 4.17844 8.56827 4.34543 8.68995 4.46969C8.74947 4.53082 8.82059 4.57947 8.89914 4.61278C8.97769 4.64609 9.0621 4.66339 9.14742 4.66368C9.23274 4.66397 9.31727 4.64723 9.39604 4.61445C9.47481 4.58167 9.54626 4.5335 9.60619 4.47277L11.2353 2.82874C11.404 2.65686 11.6052 2.52033 11.8273 2.42713C12.0494 2.33393 12.2878 2.28593 12.5286 2.28593C12.7694 2.28593 13.0079 2.33393 13.2299 2.42713C13.452 2.52033 13.6533 2.65686 13.8219 2.82874L16.3915 5.43832H6.40177C5.88975 5.44286 5.40043 5.65029 5.04114 6.01511C4.68184 6.37993 4.48191 6.87236 4.4852 7.3844V7.78638L2.15167 10.1432C1.60144 10.735 1.29659 11.5137 1.29883 12.3218V22.8033C1.29344 23.6384 1.61956 24.4415 2.20562 25.0364C2.79168 25.6313 3.58982 25.9693 4.42488 25.9764H20.5768C21.4119 25.9695 22.2101 25.6314 22.7962 25.0365C23.3823 24.4416 23.7084 23.6384 23.7029 22.8033V12.3205C23.7033 11.5538 23.4285 10.8124 22.9284 10.2313ZM4.48652 9.64263V10.388C4.48426 10.4745 4.49935 10.5606 4.5309 10.6412C4.56244 10.7218 4.60981 10.7952 4.67019 10.8572C4.73058 10.9192 4.80276 10.9684 4.88249 11.0021C4.96222 11.0357 5.04787 11.053 5.1344 11.053C5.22093 11.053 5.30659 11.0357 5.38632 11.0021C5.46605 10.9684 5.53823 10.9192 5.59862 10.8572C5.659 10.7952 5.70636 10.7218 5.73791 10.6412C5.76945 10.5606 5.78454 10.4745 5.78229 10.388V7.3844C5.78135 7.21865 5.84617 7.05929 5.96255 6.94127C6.07892 6.82324 6.23735 6.75618 6.40309 6.75478H18.5991C18.7648 6.75618 18.9232 6.82326 19.0395 6.9413C19.1558 7.05933 19.2205 7.21869 19.2194 7.3844V10.388C19.2194 10.5599 19.2877 10.7248 19.4093 10.8463C19.5308 10.9679 19.6957 11.0361 19.8675 11.0361C20.0394 11.0361 20.2043 10.9679 20.3258 10.8463C20.4474 10.7248 20.5156 10.5599 20.5156 10.388V9.62722L21.4843 10.6095L15.4598 16.7295L14.7391 15.9978C14.4513 15.7034 14.1076 15.4694 13.7281 15.3097C13.3487 15.15 12.9412 15.0678 12.5295 15.0678C12.1178 15.0678 11.7103 15.15 11.3308 15.3097C10.9514 15.4694 10.6077 15.7034 10.3199 15.9978L9.5987 16.7295L3.55223 10.5888L4.48652 9.64263ZM22.4062 22.8033C22.4094 23.2919 22.2186 23.7619 21.8758 24.11C21.5329 24.4582 21.0659 24.6561 20.5773 24.6604H4.424C3.93537 24.6561 3.4684 24.4582 3.12553 24.11C2.78265 23.7619 2.59187 23.2919 2.59504 22.8033V12.3205C2.59519 12.0792 2.64121 11.8401 2.73065 11.616L8.67982 17.6559L4.32097 22.0799C4.19947 22.2043 4.13145 22.3714 4.13145 22.5453C4.13145 22.7192 4.19947 22.8862 4.32097 23.0107C4.38067 23.0717 4.45197 23.1202 4.53068 23.1533C4.60939 23.1865 4.69392 23.2035 4.77931 23.2035C4.8647 23.2035 4.94923 23.1865 5.02794 23.1533C5.10665 23.1202 5.17795 23.0717 5.23765 23.0107L11.2313 16.9237C11.3998 16.7515 11.601 16.6148 11.8231 16.5214C12.0452 16.428 12.2837 16.3799 12.5246 16.3799C12.7656 16.3799 13.0041 16.428 13.2261 16.5214C13.4482 16.6148 13.6494 16.7515 13.818 16.9237L19.9213 23.1216C19.9809 23.1827 20.0522 23.2312 20.1309 23.2643C20.2095 23.2974 20.294 23.3144 20.3794 23.3144C20.4647 23.3144 20.5492 23.2974 20.6279 23.2643C20.7066 23.2312 20.7778 23.1827 20.8375 23.1216C20.9592 22.9974 21.0273 22.8304 21.0273 22.6565C21.0273 22.4825 20.9592 22.3155 20.8375 22.1913L16.3743 17.6559L22.2838 11.6548C22.3644 11.8672 22.4057 12.0924 22.4058 12.3196V22.8011L22.4062 22.8033ZM8.49314 10.0658H16.5064C16.6717 10.0522 16.8258 9.97701 16.9382 9.85506C17.0506 9.73311 17.1129 9.57335 17.1129 9.40752C17.1129 9.24169 17.0506 9.08193 16.9382 8.95998C16.8258 8.83803 16.6717 8.76282 16.5064 8.74929H8.49314C8.32933 8.76459 8.17712 8.84048 8.06633 8.96211C7.95553 9.08373 7.89412 9.24234 7.89412 9.40686C7.89412 9.57139 7.95553 9.72999 8.06633 9.85161C8.17712 9.97324 8.32933 10.0491 8.49314 10.0644V10.0658ZM17.1571 12.5666C17.1581 12.4806 17.1421 12.3953 17.1101 12.3155C17.078 12.2358 17.0305 12.1631 16.9703 12.1018C16.91 12.0404 16.8383 11.9915 16.7591 11.958C16.68 11.9244 16.595 11.9068 16.509 11.9062H8.49314C8.32157 11.9106 8.15852 11.9819 8.03874 12.1048C7.91897 12.2277 7.85193 12.3925 7.85193 12.5642C7.85193 12.7358 7.91897 12.9006 8.03874 13.0235C8.15852 13.1465 8.32157 13.2177 8.49314 13.2222H16.5064C16.5922 13.2217 16.677 13.2044 16.7561 13.1711C16.8352 13.1378 16.9069 13.0893 16.9672 13.0283C17.0275 12.9673 17.0752 12.895 17.1076 12.8155C17.1399 12.7361 17.1563 12.6511 17.1558 12.5653L17.1571 12.5666Z" fill="#C40E24"/>
  </g>
  <defs>
    <clipPath id="clip0_1_709">
      <rect width="25" height="25" fill="white" transform="translate(0 0.97998)"/>
    </clipPath>
  </defs>
</svg>