<svg xmlns="http://www.w3.org/2000/svg" width="25" height="26" viewBox="0 0 25 26" fill="none">
<g clip-path="url(#clip0_1_696)">
<path fill-rule="evenodd" clip-rule="evenodd" d="M14.4118 5.96036C15.2166 6.1252 15.9807 6.44836 16.6597 6.91107C17.3386 7.37377 17.9187 7.96679 18.3665 8.65566C18.8209 9.34389 19.1352 10.115 19.2912 10.9249C19.4472 11.7347 19.4419 12.5674 19.2756 13.3752C19.2412 13.5456 19.2754 13.7227 19.3708 13.868C19.4662 14.0134 19.6151 14.1152 19.7852 14.1514C19.8286 14.1605 19.8728 14.1651 19.9172 14.1651C20.0684 14.1644 20.2147 14.1114 20.3313 14.0152C20.4479 13.9189 20.5277 13.7853 20.557 13.637C20.7578 12.66 20.764 11.653 20.5752 10.6736C20.3864 9.69414 20.0064 8.76155 19.4569 7.92914C18.9152 7.09596 18.2133 6.37876 17.392 5.81921C16.5707 5.25966 15.6463 4.86892 14.6727 4.6697C14.5016 4.6351 14.3237 4.6699 14.1782 4.76646C14.0327 4.86301 13.9315 5.01341 13.8969 5.18456C13.8623 5.35571 13.8971 5.5336 13.9937 5.67909C14.0902 5.82458 14.2406 5.92576 14.4118 5.96036ZM13.3847 9.08823C14.2638 9.27356 15.0339 9.79921 15.5268 10.5504C16.0196 11.3016 16.1953 12.2173 16.0153 13.0975C15.98 13.2679 16.0138 13.4454 16.1093 13.5909C16.2048 13.7365 16.3541 13.8382 16.5244 13.8737C16.5678 13.8828 16.6121 13.8874 16.6564 13.8874C16.8076 13.8867 16.954 13.8338 17.0706 13.7375C17.1872 13.6413 17.2669 13.5077 17.2963 13.3593C17.5459 12.1382 17.3023 10.8679 16.6186 9.82573C15.9348 8.7836 14.8665 8.05432 13.647 7.79712C13.4763 7.76374 13.2994 7.79918 13.1547 7.89572C13.0101 7.99226 12.9095 8.14207 12.8749 8.31248C12.8403 8.48289 12.8745 8.66008 12.9699 8.8054C13.0654 8.95072 13.2145 9.05238 13.3847 9.08823ZM18.2578 16.2201C18.0828 16.0638 17.8772 15.9458 17.6541 15.8733C17.431 15.8009 17.1952 15.7757 16.9618 15.7994C16.7036 15.8425 16.4566 15.9364 16.2349 16.0756C16.0132 16.2148 15.8213 16.3966 15.6703 16.6104C15.4732 16.8595 15.1383 17.2775 15.0217 17.4153C14.2349 18.3446 13.687 18.0344 13.3191 17.7999C12.2732 16.8564 11.3253 15.8097 10.4901 14.6755C10.4798 14.6602 10.4686 14.6455 10.4566 14.6315L10.4438 14.6139C10.4347 14.602 10.4253 14.5902 10.4157 14.5787C9.52361 13.4805 8.74501 12.2949 8.09179 11.0398C7.95494 10.6253 7.78772 10.0176 8.87728 9.47591C8.89532 9.46755 8.92392 9.45567 8.96133 9.43982C9.53212 9.22175 10.0587 8.9021 10.5156 8.49636C10.7912 8.23913 10.9761 7.89964 11.0428 7.52861C11.1095 7.15758 11.0544 6.77492 10.8857 6.43782C10.0729 4.85862 9.15417 3.33624 8.1358 1.88112C7.99957 1.66241 7.82055 1.4735 7.60948 1.32571C7.3984 1.17793 7.15964 1.07434 6.90752 1.02116C6.65541 0.96797 6.39515 0.966292 6.14237 1.01622C5.88959 1.06615 5.64951 1.16665 5.43654 1.3117L6.15778 2.40874C6.23146 2.35511 6.31617 2.31859 6.40574 2.30185C6.49532 2.28511 6.5875 2.28856 6.67557 2.31196C6.76364 2.33536 6.84538 2.37811 6.91483 2.4371C6.98429 2.4961 7.0397 2.56984 7.07704 2.65296C8.05032 4.04572 8.92986 5.50168 9.70985 7.0112C9.76249 7.10141 9.77958 7.20801 9.75777 7.31015C9.73596 7.4123 9.67682 7.50262 9.59192 7.56346C9.25119 7.84462 8.86641 8.06764 8.45307 8.22353C8.402 8.2449 8.35138 8.26735 8.30126 8.29086C7.32215 8.77799 6.27704 9.72806 6.86406 11.4891C6.87154 11.512 6.88078 11.5331 6.89046 11.5565C7.59019 12.922 8.43085 14.2106 9.39874 15.4012L9.41502 15.4218C9.42294 15.4333 9.4313 15.4443 9.43966 15.4548C10.3466 16.6892 11.3807 17.8249 12.5248 18.8432C12.5441 18.8591 12.5644 18.8738 12.5856 18.8872C14.1425 19.8844 15.3112 19.0998 16.0179 18.2672C16.1627 18.0964 16.5434 17.6194 16.6943 17.4289L16.7119 17.4065C16.8069 17.2594 16.952 17.1517 17.1203 17.1033C17.2387 17.1048 17.3516 17.1533 17.4345 17.2379C18.6508 18.2153 19.8022 19.2709 20.8813 20.3979C20.8985 20.4197 20.9169 20.4406 20.9364 20.4604C21.5621 21.0866 21.3672 21.4611 21.3029 21.5838C21.2224 21.7383 21.2063 21.9183 21.2579 22.0847C21.3096 22.251 21.425 22.3902 21.5788 22.4718C21.672 22.5215 21.776 22.5473 21.8816 22.5471C22.0011 22.5471 22.1184 22.5143 22.2206 22.4522C22.3228 22.3901 22.406 22.3012 22.4611 22.1951C22.6719 21.7902 23.0332 20.7279 21.8869 19.5548C21.1925 18.6901 18.8545 16.7099 18.2578 16.2201ZM9.56463 15.56C9.61181 15.5903 9.66268 15.6144 9.71601 15.6317C9.66257 15.6137 9.61169 15.5889 9.56463 15.5578V15.56ZM15.6945 1.57089C15.5236 1.53617 15.3459 1.57077 15.2005 1.66707C15.0551 1.76338 14.9539 1.9135 14.9191 2.08442C14.8844 2.25534 14.919 2.43305 15.0153 2.57846C15.1116 2.72387 15.2618 2.82507 15.4327 2.85979C17.7989 3.35851 19.8716 4.77336 21.1981 6.79531C22.5246 8.81725 22.997 11.282 22.5122 13.6511C22.477 13.8215 22.5109 13.9989 22.6063 14.1444C22.7017 14.2899 22.851 14.3917 23.0213 14.4273C23.0647 14.4364 23.109 14.441 23.1533 14.441C23.3045 14.4403 23.4508 14.3873 23.5674 14.2911C23.6841 14.1949 23.7638 14.0612 23.7931 13.9129C24.3476 11.2028 23.8071 8.38342 22.2897 6.07051C20.7723 3.75761 18.4013 2.13917 15.6945 1.56869V1.57089ZM20.8356 23.2793C20.8294 23.2567 20.8221 23.2343 20.8136 23.2124C20.807 23.194 20.8021 23.1755 20.7942 23.1574C20.7863 23.1394 20.7744 23.1218 20.7643 23.1042C20.7535 23.0834 20.7414 23.0633 20.7282 23.0439C20.7282 23.0413 20.7256 23.0386 20.7238 23.036C20.7115 23.0193 20.6965 23.0065 20.6829 22.992C20.6692 22.9775 20.6604 22.9634 20.6472 22.9506L17.7566 20.2179C17.6942 20.1588 17.6207 20.1126 17.5403 20.082C17.46 20.0515 17.3744 20.0371 17.2885 20.0398C17.2025 20.0425 17.118 20.0622 17.0397 20.0978C16.9615 20.1333 16.891 20.184 16.8325 20.247C16.7136 20.3744 16.6499 20.5437 16.6553 20.7179C16.6608 20.892 16.7349 21.057 16.8615 21.1768L19.17 23.3594C17.9273 24.2039 16.8523 24.6637 16.098 24.6637C15.7536 24.6658 15.4138 24.5845 15.1075 24.427C15.0899 24.4151 15.0717 24.4043 15.0529 24.3944C12.0384 22.649 9.38958 20.3374 7.25218 17.5869L7.03612 17.3066C4.90565 14.536 3.32884 11.3811 2.39185 8.01407C2.39185 8.00659 2.38657 7.99515 2.38393 7.98723C2.28526 7.66675 2.28144 7.32456 2.37293 7.00196C2.73451 6.08668 3.25602 5.24302 3.9131 4.51041L5.65481 7.3474C5.71312 7.4427 5.79493 7.52144 5.8924 7.57607C5.98987 7.6307 6.09974 7.65939 6.21147 7.65939C6.33287 7.65944 6.45183 7.62528 6.55471 7.56082C6.70231 7.46843 6.80743 7.32145 6.84715 7.15191C6.88688 6.98236 6.858 6.80399 6.76681 6.65564L4.61058 3.14274C4.57578 3.08805 4.53307 3.03881 4.48384 2.99664C4.47548 2.9874 4.46932 2.97684 4.46008 2.9676C4.39897 2.90719 4.3265 2.85948 4.24684 2.82724C4.16719 2.795 4.08194 2.77886 3.99601 2.77976C3.91008 2.78067 3.82519 2.79858 3.74623 2.83249C3.66727 2.86639 3.59581 2.9156 3.53598 2.97728C2.49484 3.98702 1.67943 5.20587 1.14344 6.55355C0.956629 7.13974 0.951873 7.76879 1.1298 8.35775C2.11529 11.8915 3.77004 15.2033 6.00421 18.1132L6.22027 18.3926C8.42051 21.2388 11.6368 24.0437 14.4201 25.5443C14.9315 25.8331 15.5098 25.9826 16.0971 25.9777C17.2914 25.9777 18.803 25.2974 20.5896 23.9535C20.6096 23.9375 20.6286 23.9201 20.6464 23.9016C20.6556 23.8928 20.6662 23.8862 20.675 23.8765L20.6789 23.8716C20.6992 23.8487 20.7177 23.8243 20.7344 23.7986C20.7418 23.7876 20.7511 23.7775 20.7577 23.7665C20.7715 23.7419 20.7837 23.7165 20.7942 23.6903C20.8004 23.6767 20.8079 23.6639 20.8131 23.6498C20.8211 23.6248 20.8277 23.5994 20.8329 23.5737C20.8365 23.5583 20.8417 23.5429 20.8439 23.5275C20.8475 23.501 20.8492 23.4742 20.8492 23.4474C20.8492 23.4325 20.8519 23.4171 20.8492 23.4034C20.8476 23.3771 20.8442 23.3509 20.8391 23.3251C20.8401 23.309 20.839 23.2929 20.8356 23.2771V23.2793Z" fill="#C40E24"/>
</g>
<defs>
<clipPath id="clip0_1_696">
<rect width="25" height="25" fill="white" transform="translate(0 0.97998)"/>
</clipPath>
</defs>
</svg>